<svg width="24" height="24" viewBox="0 0 24 24" fill="none" xmlns="http://www.w3.org/2000/svg">
<g clip-path="url(#clip0_619_2109)">
<path fill-rule="evenodd" clip-rule="evenodd" d="M23.8996 11.9996C23.8996 18.5718 18.5718 23.8996 11.9996 23.8996C5.42742 23.8996 0.0996094 18.5718 0.0996094 11.9996C0.0996094 5.42742 5.42742 0.0996094 11.9996 0.0996094C18.5718 0.0996094 23.8996 5.42742 23.8996 11.9996ZM9.08755 4.98358C9.83955 4.94758 10.0835 4.93958 11.9995 4.93958C13.9155 4.93958 14.1555 4.94758 14.9075 4.98358C15.6595 5.01958 16.1715 5.13558 16.6235 5.31158C17.0915 5.49558 17.4835 5.73558 17.8755 6.12757C18.2675 6.51958 18.5115 6.91558 18.6915 7.37958C18.8635 7.82758 18.9835 8.33957 19.0195 9.09158C19.0555 9.84758 19.0635 10.0876 19.0635 12.0036C19.0635 13.8828 19.0521 14.1526 19.0216 14.8684L19.0195 14.9156C18.9835 15.6676 18.8635 16.1796 18.6915 16.6276C18.5075 17.0916 18.2675 17.4876 17.8755 17.8796C17.4835 18.2716 17.0915 18.5156 16.6275 18.6956C16.1755 18.8716 15.6635 18.9876 14.9115 19.0236C14.1555 19.0596 13.9155 19.0676 11.9995 19.0676C10.0795 19.0676 9.83955 19.0596 9.08755 19.0236C8.33955 18.9876 7.82355 18.8716 7.37555 18.6956C6.91155 18.5156 6.51555 18.2716 6.12355 17.8796C5.72755 17.4876 5.48755 17.0916 5.30755 16.6276C5.13155 16.1796 5.01555 15.6676 4.97955 14.9156C4.94355 14.1596 4.93555 13.9196 4.93555 12.0036C4.93555 10.1244 4.94704 9.85453 4.97754 9.13882L4.97955 9.09158C5.01155 8.34358 5.13155 7.82758 5.30755 7.37958C5.49155 6.91558 5.73155 6.51958 6.12355 6.12757C6.51555 5.73158 6.91155 5.49158 7.37555 5.31158C7.82355 5.13558 8.33555 5.01958 9.08755 4.98358ZM11.9995 6.21158H11.3675C10.0515 6.21158 9.79955 6.21958 9.14755 6.25158C8.45955 6.28358 8.08355 6.39957 7.83555 6.49557C7.50755 6.62358 7.27155 6.77558 7.02355 7.02358C6.77555 7.27158 6.62355 7.50758 6.49555 7.83558C6.39955 8.08757 6.28355 8.45957 6.25155 9.14758C6.21955 9.89157 6.21155 10.1156 6.21155 11.9996C6.21155 13.8836 6.21955 14.1076 6.25155 14.8516C6.28355 15.5396 6.39955 15.9156 6.49555 16.1636C6.62355 16.4916 6.77555 16.7276 7.02355 16.9756C7.27155 17.2236 7.50755 17.3756 7.83555 17.5036C8.08755 17.5996 8.45955 17.7156 9.14755 17.7476C9.89155 17.7796 10.1155 17.7876 11.9995 17.7876C13.8835 17.7876 14.1075 17.7796 14.8515 17.7476C15.5395 17.7156 15.9155 17.5996 16.1635 17.5036C16.4955 17.3756 16.7275 17.2236 16.9755 16.9756C17.2235 16.7276 17.3755 16.4916 17.5035 16.1636C17.5995 15.9116 17.7155 15.5396 17.7475 14.8516C17.7795 14.1076 17.7875 13.8836 17.7875 11.9996C17.7875 10.1156 17.7795 9.89157 17.7475 9.14758C17.7155 8.45957 17.5995 8.08357 17.5035 7.83558C17.3755 7.50758 17.2235 7.27158 16.9755 7.02358C16.7275 6.77558 16.4915 6.62358 16.1635 6.49557C15.9115 6.39957 15.5395 6.28358 14.8515 6.25158C14.1075 6.21958 13.8835 6.21158 11.9995 6.21158ZM14.9195 8.23158C14.9195 7.76358 15.2995 7.38358 15.7675 7.38358C16.2355 7.38358 16.6155 7.76358 16.6155 8.23158C16.6155 8.69958 16.2355 9.07957 15.7675 9.07957C15.2995 9.07957 14.9195 8.69958 14.9195 8.23158ZM8.37555 11.9996C8.37555 9.99957 9.99555 8.37558 11.9995 8.37558C14.0035 8.37558 15.6235 9.99557 15.6235 11.9996C15.6235 13.9996 14.0035 15.6236 11.9995 15.6236C9.99955 15.6236 8.37555 14.0036 8.37555 11.9996ZM14.3515 11.9996C14.3515 10.6996 13.2995 9.64758 11.9995 9.64758C10.6995 9.64758 9.64755 10.6996 9.64755 11.9996C9.64755 13.2996 10.6995 14.3516 11.9995 14.3516C13.2995 14.3516 14.3515 13.2996 14.3515 11.9996Z" fill="#4C5CF4"/>
</g>
<defs>
<clipPath id="clip0_619_2109">
<rect width="24" height="24" fill="white"/>
</clipPath>
</defs>
</svg>
