<svg width="37" height="36" viewBox="0 0 37 36" fill="none" xmlns="http://www.w3.org/2000/svg">
<g clip-path="url(#clip0_749_1516)">
<path fill-rule="evenodd" clip-rule="evenodd" d="M36.7449 17.9984C36.7449 27.8567 28.7532 35.8484 18.8949 35.8484C9.03664 35.8484 1.04492 27.8567 1.04492 17.9984C1.04492 8.14015 9.03664 0.148438 18.8949 0.148438C28.7532 0.148438 36.7449 8.14015 36.7449 17.9984ZM14.5268 7.47439C15.6548 7.42039 16.0208 7.40839 18.8948 7.40839C21.7688 7.40839 22.1288 7.42039 23.2568 7.47439C24.3848 7.52839 25.1528 7.70239 25.8308 7.96639C26.5328 8.24239 27.1208 8.60239 27.7088 9.19039C28.2968 9.77839 28.6628 10.3724 28.9328 11.0684C29.1908 11.7404 29.3708 12.5084 29.4248 13.6364C29.4788 14.7704 29.4908 15.1304 29.4908 18.0044C29.4908 20.8232 29.4736 21.228 29.4278 22.3015L29.4248 22.3724C29.3708 23.5004 29.1908 24.2684 28.9328 24.9404C28.6568 25.6364 28.2968 26.2304 27.7088 26.8184C27.1208 27.4064 26.5328 27.7724 25.8368 28.0424C25.1588 28.3064 24.3908 28.4804 23.2628 28.5344C22.1288 28.5884 21.7688 28.6004 18.8948 28.6004C16.0148 28.6004 15.6548 28.5884 14.5268 28.5344C13.4048 28.4804 12.6308 28.3064 11.9588 28.0424C11.2628 27.7724 10.6688 27.4064 10.0808 26.8184C9.48683 26.2304 9.12683 25.6364 8.85683 24.9404C8.59283 24.2684 8.41883 23.5004 8.36483 22.3724C8.31083 21.2384 8.29883 20.8784 8.29883 18.0044C8.29883 15.1856 8.31607 14.7808 8.36181 13.7073L8.36483 13.6364C8.41283 12.5144 8.59283 11.7404 8.85683 11.0684C9.13283 10.3724 9.49283 9.77839 10.0808 9.19039C10.6688 8.59639 11.2628 8.23639 11.9588 7.96639C12.6308 7.70239 13.3988 7.52839 14.5268 7.47439ZM18.8948 9.31639H17.9468C15.9728 9.31639 15.5948 9.32839 14.6168 9.37639C13.5848 9.42439 13.0208 9.59839 12.6488 9.74239C12.1568 9.93439 11.8028 10.1624 11.4308 10.5344C11.0588 10.9064 10.8308 11.2604 10.6388 11.7524C10.4948 12.1304 10.3208 12.6884 10.2728 13.7204C10.2248 14.8364 10.2128 15.1724 10.2128 17.9984C10.2128 20.8244 10.2248 21.1604 10.2728 22.2764C10.3208 23.3084 10.4948 23.8724 10.6388 24.2444C10.8308 24.7364 11.0588 25.0904 11.4308 25.4624C11.8028 25.8344 12.1568 26.0624 12.6488 26.2544C13.0268 26.3984 13.5848 26.5724 14.6168 26.6204C15.7328 26.6684 16.0688 26.6804 18.8948 26.6804C21.7208 26.6804 22.0568 26.6684 23.1728 26.6204C24.2048 26.5724 24.7688 26.3984 25.1408 26.2544C25.6388 26.0624 25.9868 25.8344 26.3588 25.4624C26.7308 25.0904 26.9588 24.7364 27.1508 24.2444C27.2948 23.8664 27.4688 23.3084 27.5168 22.2764C27.5648 21.1604 27.5768 20.8244 27.5768 17.9984C27.5768 15.1724 27.5648 14.8364 27.5168 13.7204C27.4688 12.6884 27.2948 12.1244 27.1508 11.7524C26.9588 11.2604 26.7308 10.9064 26.3588 10.5344C25.9868 10.1624 25.6328 9.93439 25.1408 9.74239C24.7628 9.59839 24.2048 9.42439 23.1728 9.37639C22.0568 9.32839 21.7208 9.31639 18.8948 9.31639ZM23.2748 12.3464C23.2748 11.6444 23.8448 11.0744 24.5468 11.0744C25.2488 11.0744 25.8188 11.6444 25.8188 12.3464C25.8188 13.0484 25.2488 13.6184 24.5468 13.6184C23.8448 13.6184 23.2748 13.0484 23.2748 12.3464ZM13.4588 17.9984C13.4588 14.9984 15.8888 12.5624 18.8948 12.5624C21.9008 12.5624 24.3308 14.9924 24.3308 17.9984C24.3308 20.9984 21.9008 23.4344 18.8948 23.4344C15.8948 23.4344 13.4588 21.0044 13.4588 17.9984ZM22.4228 17.9984C22.4228 16.0484 20.8448 14.4704 18.8948 14.4704C16.9448 14.4704 15.3668 16.0484 15.3668 17.9984C15.3668 19.9484 16.9448 21.5264 18.8948 21.5264C20.8448 21.5264 22.4228 19.9484 22.4228 17.9984Z" fill="#F3F4F9"/>
</g>
<defs>
<clipPath id="clip0_749_1516">
<rect width="36" height="36" fill="white" transform="translate(0.895508)"/>
</clipPath>
</defs>
</svg>
