<svg width="37" height="36" viewBox="0 0 37 36" fill="none" xmlns="http://www.w3.org/2000/svg">
<path d="M31.2892 2C32.2322 2 33.1365 2.3746 33.8033 3.0414C34.4701 3.70819 34.8447 4.61256 34.8447 5.55556V30.4444C34.8447 31.3874 34.4701 32.2918 33.8033 32.9586C33.1365 33.6254 32.2322 34 31.2892 34H6.40028C5.45729 34 4.55292 33.6254 3.88612 32.9586C3.21933 32.2918 2.84473 31.3874 2.84473 30.4444V5.55556C2.84473 4.61256 3.21933 3.70819 3.88612 3.0414C4.55292 2.3746 5.45729 2 6.40028 2H31.2892ZM30.4003 29.5556V20.1333C30.4003 18.5963 29.7897 17.1221 28.7028 16.0353C27.6159 14.9484 26.1418 14.3378 24.6047 14.3378C23.0936 14.3378 21.3336 15.2622 20.4803 16.6489V14.6756H15.5203V29.5556H20.4803V20.7911C20.4803 19.4222 21.5825 18.3022 22.9514 18.3022C23.6115 18.3022 24.2445 18.5644 24.7113 19.0312C25.1781 19.498 25.4403 20.131 25.4403 20.7911V29.5556H30.4003ZM9.7425 11.8844C10.5346 11.8844 11.2943 11.5698 11.8544 11.0097C12.4145 10.4496 12.7292 9.68989 12.7292 8.89778C12.7292 7.24444 11.3958 5.89333 9.7425 5.89333C8.94568 5.89333 8.18148 6.20987 7.61804 6.77331C7.0546 7.33676 6.73806 8.10095 6.73806 8.89778C6.73806 10.5511 8.08917 11.8844 9.7425 11.8844ZM12.2136 29.5556V14.6756H7.28917V29.5556H12.2136Z" fill="#F3F4F9"/>
</svg>
