<svg width="37" height="36" viewBox="0 0 37 36" fill="none" xmlns="http://www.w3.org/2000/svg">
<g clip-path="url(#clip0_620_2894)">
<path fill-rule="evenodd" clip-rule="evenodd" d="M18.4223 35.8484C28.2806 35.8484 36.2723 27.8567 36.2723 17.9984C36.2723 8.14015 28.2806 0.148438 18.4223 0.148438C8.56398 0.148438 0.572266 8.14015 0.572266 17.9984C0.572266 27.8567 8.56398 35.8484 18.4223 35.8484ZM27.4229 13.499V22.6109C27.4229 23.3476 27.1598 24.0564 26.6873 24.5924C26.2148 25.1284 25.5688 25.451 24.8813 25.4942L24.7229 25.499H12.1229C11.4342 25.4991 10.7715 25.2176 10.2704 24.7122C9.76935 24.2069 9.46776 23.5158 9.42735 22.7804L9.42285 22.6109V13.499L17.9234 19.5611L18.0278 19.6247C18.1508 19.689 18.2859 19.7224 18.4229 19.7224C18.5598 19.7224 18.6949 19.689 18.818 19.6247L18.9224 19.5611L27.4229 13.499ZM27.4229 11.8717C26.9255 11.0473 26.0335 10.499 25.0163 10.499H11.8294L11.6401 10.5058C11.1907 10.5364 10.7549 10.6764 10.3692 10.914C9.98349 11.1516 9.65902 11.4799 9.42285 11.8717L18.4229 17.999L27.4229 11.8717Z" fill="#F3F4F9"/>
</g>
<defs>
<clipPath id="clip0_620_2894">
<rect width="36" height="36" fill="white" transform="translate(0.422852)"/>
</clipPath>
</defs>
</svg>
