<svg width="24" height="24" viewBox="0 0 24 24" fill="none" xmlns="http://www.w3.org/2000/svg">
<path fill-rule="evenodd" clip-rule="evenodd" d="M24 12C24 18.6274 18.6274 24 12 24C5.37258 24 0 18.6274 0 12C0 5.37258 5.37258 0 12 0C18.6274 0 24 5.37258 24 12ZM12.4297 8.85954C11.2625 9.34501 8.92977 10.3498 5.43153 11.8739C4.86347 12.0998 4.56589 12.3208 4.5388 12.5369C4.49302 12.9021 4.95035 13.0459 5.57311 13.2417C5.65782 13.2684 5.74559 13.296 5.83557 13.3252C6.44827 13.5244 7.27246 13.7574 7.70092 13.7666C8.08958 13.775 8.52336 13.6148 9.00227 13.286C12.2708 11.0796 13.958 9.96442 14.0639 9.94038C14.1387 9.92342 14.2422 9.90209 14.3124 9.96446C14.3826 10.0268 14.3757 10.1449 14.3682 10.1766C14.3229 10.3698 12.5278 12.0387 11.5988 12.9024C11.3091 13.1716 11.1037 13.3626 11.0617 13.4063C10.9676 13.504 10.8718 13.5964 10.7796 13.6852C10.2104 14.2339 9.78354 14.6454 10.8032 15.3174C11.2933 15.6403 11.6854 15.9074 12.0766 16.1738C12.5038 16.4647 12.9299 16.7549 13.4812 17.1163C13.6217 17.2084 13.7559 17.304 13.8865 17.3971C14.3837 17.7516 14.8304 18.07 15.3822 18.0193C15.7029 17.9897 16.0341 17.6882 16.2023 16.789C16.5998 14.6638 17.3813 10.0591 17.5619 8.16159C17.5777 7.99534 17.5578 7.78258 17.5418 7.68919C17.5258 7.59579 17.4924 7.46272 17.371 7.36421C17.2272 7.24755 17.0053 7.22295 16.906 7.22469C16.4547 7.23265 15.7622 7.47343 12.4297 8.85954Z" fill="#4C5CF4"/>
</svg>
