<svg width="36" height="36" viewBox="0 0 36 36" fill="none" xmlns="http://www.w3.org/2000/svg">
<path fill-rule="evenodd" clip-rule="evenodd" d="M36 18C36 27.9411 27.9411 36 18 36C8.05887 36 0 27.9411 0 18C0 8.05887 8.05887 0 18 0C27.9411 0 36 8.05887 36 18ZM18.6445 13.2893C16.8937 14.0175 13.3947 15.5247 8.14729 17.8109C7.2952 18.1498 6.84884 18.4812 6.8082 18.8054C6.73953 19.3532 7.42552 19.5689 8.35966 19.8626C8.48673 19.9026 8.61838 19.944 8.75336 19.9878C9.67241 20.2866 10.9087 20.6361 11.5514 20.65C12.1344 20.6626 12.785 20.4222 13.5034 19.9289C18.4062 16.6194 20.937 14.9466 21.0959 14.9106C21.208 14.8851 21.3633 14.8531 21.4686 14.9467C21.5738 15.0402 21.5635 15.2174 21.5524 15.2649C21.4844 15.5546 18.7916 18.0581 17.3981 19.3536C16.9637 19.7575 16.6556 20.044 16.5926 20.1094C16.4515 20.2559 16.3076 20.3946 16.1694 20.5278C15.3156 21.3509 14.6753 21.9682 16.2049 22.9761C16.9399 23.4605 17.5281 23.861 18.1149 24.2606C18.7557 24.697 19.3949 25.1323 20.2219 25.6744C20.4326 25.8125 20.6338 25.956 20.8298 26.0957C21.5756 26.6274 22.2456 27.1051 23.0733 27.0289C23.5543 26.9846 24.0511 26.5323 24.3035 25.1835C24.8998 21.9956 26.0719 15.0886 26.3428 12.2424C26.3665 11.993 26.3367 11.6739 26.3127 11.5338C26.2887 11.3937 26.2386 11.1941 26.0565 11.0463C25.8408 10.8713 25.5079 10.8344 25.359 10.837C24.682 10.849 23.6433 11.2101 18.6445 13.2893Z" fill="#F3F4F9"/>
</svg>
