<svg width="24" height="24" viewBox="0 0 24 24" fill="none" xmlns="http://www.w3.org/2000/svg">
<g clip-path="url(#clip0_619_2091)">
<path fill-rule="evenodd" clip-rule="evenodd" d="M19.7829 0.75H4.21708C2.30227 0.75 0.75 2.30227 0.75 4.21708V19.7829C0.75 21.6977 2.30227 23.25 4.21708 23.25H19.7829C21.6977 23.25 23.25 21.6977 23.25 19.7829V4.21708C23.25 2.30227 21.6977 0.75 19.7829 0.75ZM12.7316 16.5007H11.8113C11.8113 16.5007 9.78058 16.6229 7.99195 14.7607C6.04147 12.7299 4.31905 8.69997 4.31905 8.69997C4.31905 8.69997 4.21971 8.43585 4.32767 8.30799C4.44902 8.16436 4.77923 8.15514 4.77923 8.15514L6.97946 8.14077C6.97946 8.14077 7.18675 8.17531 7.3351 8.2843C7.45743 8.37425 7.52591 8.54229 7.52591 8.54229C7.52591 8.54229 7.88155 9.44167 8.35242 10.2552C9.2716 11.8435 9.69973 12.1908 10.0118 12.0207C10.4665 11.7727 10.3302 9.77552 10.3302 9.77552C10.3302 9.77552 10.3385 9.05068 10.1011 8.72778C9.91744 8.47782 9.57096 8.40467 9.41789 8.38428C9.29404 8.36775 9.49727 8.08037 9.76068 7.95137C10.1566 7.75742 10.8557 7.74647 11.6819 7.75487C12.3256 7.76143 12.5109 7.80161 12.7626 7.86234C13.3466 8.00332 13.3283 8.4551 13.2891 9.4299C13.2773 9.72117 13.2637 10.0591 13.2637 10.4494C13.2637 10.5373 13.2611 10.631 13.2585 10.7274C13.2448 11.2266 13.2292 11.7979 13.5578 12.0103C13.7263 12.1192 14.1386 12.0265 15.1696 10.2759C15.6582 9.44612 16.0248 8.47061 16.0248 8.47061C16.0248 8.47061 16.1046 8.29666 16.2291 8.22221C16.3563 8.14609 16.528 8.16946 16.528 8.16946L18.8433 8.15514C18.8433 8.15514 19.5391 8.07218 19.6517 8.38624C19.7698 8.71585 19.3917 9.48548 18.4458 10.7462C17.5475 11.9435 17.1109 12.3836 17.152 12.7733C17.1819 13.0575 17.4656 13.3149 18.0093 13.8195C19.149 14.8774 19.4529 15.4329 19.525 15.5648C19.5309 15.5755 19.5352 15.5834 19.5383 15.5886C20.0484 16.4343 18.9727 16.5007 18.9727 16.5007L16.9163 16.5294C16.9163 16.5294 16.4744 16.6168 15.8929 16.2175C15.5888 16.0088 15.2916 15.668 15.0084 15.3432C14.5752 14.8467 14.1749 14.3877 13.8332 14.496C13.2601 14.6779 13.2781 15.9129 13.2781 15.9129C13.2781 15.9129 13.2823 16.1766 13.1517 16.3172C13.0096 16.4701 12.7316 16.5007 12.7316 16.5007Z" fill="#4C5CF4"/>
</g>
<defs>
<clipPath id="clip0_619_2091">
<rect width="24" height="24" fill="white"/>
</clipPath>
</defs>
</svg>
