<svg width="42" height="43" viewBox="0 0 42 43" fill="none" xmlns="http://www.w3.org/2000/svg">
<g filter="url(#filter0_d_749_1517)">
<path fill-rule="evenodd" clip-rule="evenodd" d="M32.6226 1.125H9.27386C6.40165 1.125 4.07324 3.45341 4.07324 6.32562V29.6744C4.07324 32.5465 6.40165 34.875 9.27386 34.875H32.6226C35.4947 34.875 37.8232 32.5465 37.8232 29.6744V6.32562C37.8232 3.45341 35.4947 1.125 32.6226 1.125ZM22.0457 24.7511H20.6651C20.6651 24.7511 17.6191 24.9344 14.9362 22.1411C12.0104 19.0948 9.42681 13.0499 9.42681 13.0499C9.42681 13.0499 9.27781 12.6538 9.43974 12.462C9.62177 12.2465 10.1171 12.2327 10.1171 12.2327L13.4174 12.2112C13.4174 12.2112 13.7284 12.263 13.9509 12.4264C14.1344 12.5614 14.2371 12.8134 14.2371 12.8134C14.2371 12.8134 14.7706 14.1625 15.4769 15.3828C16.8556 17.7653 17.4978 18.2863 17.9659 18.031C18.6481 17.659 18.4435 14.6633 18.4435 14.6633C18.4435 14.6633 18.4559 13.576 18.1 13.0917C17.8244 12.7167 17.3047 12.607 17.0751 12.5764C16.8893 12.5516 17.1941 12.1206 17.5893 11.9271C18.1832 11.6361 19.2318 11.6197 20.4711 11.6323C21.4366 11.6422 21.7146 11.7024 22.0921 11.7935C22.9681 12.005 22.9408 12.6827 22.8818 14.1448C22.8642 14.5817 22.8438 15.0887 22.8438 15.6742C22.8438 15.806 22.84 15.9466 22.836 16.0911C22.8155 16.8399 22.792 17.6969 23.285 18.0154C23.5377 18.1787 24.1562 18.0398 25.7027 15.4138C26.4355 14.1692 26.9854 12.7059 26.9854 12.7059C26.9854 12.7059 27.1052 12.445 27.2918 12.3333C27.4826 12.2191 27.7403 12.2542 27.7403 12.2542L31.2132 12.2327C31.2132 12.2327 32.2569 12.1083 32.4258 12.5794C32.603 13.0738 32.0359 14.2282 30.617 16.1193C29.2695 17.9153 28.6146 18.5754 28.6762 19.16C28.721 19.5862 29.1466 19.9724 29.9622 20.7293C31.6718 22.3161 32.1276 23.1494 32.2358 23.3473C32.2445 23.3633 32.251 23.3751 32.2557 23.3829C33.0208 24.6515 31.4073 24.7511 31.4073 24.7511L28.3227 24.7942C28.3227 24.7942 27.6599 24.9253 26.7876 24.3262C26.3315 24.0132 25.8856 23.502 25.4608 23.0149C24.8111 22.27 24.2106 21.5815 23.698 21.7441C22.8384 22.0169 22.8654 23.8693 22.8654 23.8693C22.8654 23.8693 22.8717 24.2649 22.6758 24.4757C22.4626 24.7051 22.0457 24.7511 22.0457 24.7511Z" fill="#F3F4F9"/>
</g>
<defs>
<filter id="filter0_d_749_1517" x="-1.05176" y="0" width="44" height="44" filterUnits="userSpaceOnUse" color-interpolation-filters="sRGB">
<feFlood flood-opacity="0" result="BackgroundImageFix"/>
<feColorMatrix in="SourceAlpha" type="matrix" values="0 0 0 0 0 0 0 0 0 0 0 0 0 0 0 0 0 0 127 0" result="hardAlpha"/>
<feOffset dy="4"/>
<feGaussianBlur stdDeviation="2"/>
<feComposite in2="hardAlpha" operator="out"/>
<feColorMatrix type="matrix" values="0 0 0 0 0 0 0 0 0 0 0 0 0 0 0 0 0 0 0.25 0"/>
<feBlend mode="normal" in2="BackgroundImageFix" result="effect1_dropShadow_749_1517"/>
<feBlend mode="normal" in="SourceGraphic" in2="effect1_dropShadow_749_1517" result="shape"/>
</filter>
</defs>
</svg>
