<svg width="37" height="36" viewBox="0 0 37 36" fill="none" xmlns="http://www.w3.org/2000/svg">
<path d="M29.0498 7.36509C27.6746 5.97598 26.0366 4.87459 24.2313 4.12517C22.4259 3.37574 20.4895 2.99328 18.5348 3.00009C10.3448 3.00009 3.6698 9.67509 3.6698 17.8651C3.6698 20.4901 4.3598 23.0401 5.64981 25.2901L3.5498 33.0001L11.4248 30.9301C13.5998 32.1151 16.0448 32.7451 18.5348 32.7451C26.7248 32.7451 33.3998 26.0701 33.3998 17.8801C33.3998 13.9051 31.8548 10.1701 29.0498 7.36509ZM18.5348 30.2251C16.3148 30.2251 14.1398 29.6251 12.2348 28.5001L11.7848 28.2301L7.10481 29.4601L8.34981 24.9001L8.04981 24.4351C6.81642 22.4655 6.16151 20.189 6.1598 17.8651C6.1598 11.0551 11.7098 5.50509 18.5198 5.50509C21.8198 5.50509 24.9248 6.79509 27.2498 9.13509C28.401 10.281 29.3134 11.6441 29.9339 13.1452C30.5544 14.6464 30.8709 16.2558 30.8648 17.8801C30.8948 24.6901 25.3448 30.2251 18.5348 30.2251ZM25.3148 20.9851C24.9398 20.8051 23.1098 19.9051 22.7798 19.7701C22.4348 19.6501 22.1948 19.5901 21.9398 19.9501C21.6848 20.3251 20.9798 21.1651 20.7698 21.4051C20.5598 21.6601 20.3348 21.6901 19.9598 21.4951C19.5848 21.3151 18.3848 20.9101 16.9748 19.6501C15.8648 18.6601 15.1298 17.4451 14.9048 17.0701C14.6948 16.6951 14.8748 16.5001 15.0698 16.3051C15.2348 16.1401 15.4448 15.8701 15.6248 15.6601C15.8048 15.4501 15.8798 15.2851 15.9998 15.0451C16.1198 14.7901 16.0598 14.5801 15.9698 14.4001C15.8798 14.2201 15.1298 12.3901 14.8298 11.6401C14.5298 10.9201 14.2148 11.0101 13.9898 10.9951H13.2698C13.0148 10.9951 12.6248 11.0851 12.2798 11.4601C11.9498 11.8351 10.9898 12.7351 10.9898 14.5651C10.9898 16.3951 12.3248 18.1651 12.5048 18.4051C12.6848 18.6601 15.1298 22.4101 18.8498 24.0151C19.7348 24.4051 20.4248 24.6301 20.9648 24.7951C21.8498 25.0801 22.6598 25.0351 23.3048 24.9451C24.0248 24.8401 25.5098 24.0451 25.8098 23.1751C26.1248 22.3051 26.1248 21.5701 26.0198 21.4051C25.9148 21.2401 25.6898 21.1651 25.3148 20.9851Z" fill="#F3F4F9"/>
</svg>
