<svg width="20" height="19" viewBox="0 0 20 19" fill="none" xmlns="http://www.w3.org/2000/svg">
<path fill-rule="evenodd" clip-rule="evenodd" d="M4.88448 0C4.61535 8.7902e-05 4.3504 0.0666537 4.11316 0.193787C3.87593 0.32092 3.67374 0.504686 3.52457 0.728768L0.172408 5.75727C-0.0321395 6.06559 -0.0564237 6.45988 0.108896 6.79062C1.94337 10.4607 4.49272 13.7269 7.60712 16.3973L9.24163 17.7997C9.44986 17.9782 9.71506 18.0764 9.98931 18.0764C10.2636 18.0764 10.5288 17.9782 10.737 17.7997L12.3715 16.3982C15.4863 13.7277 18.036 10.4611 19.8707 6.79062C20.036 6.45988 20.0108 6.06559 19.8062 5.75727L16.4522 0.728768C16.303 0.504991 16.1009 0.321489 15.8639 0.19453C15.6268 0.06757 15.3621 0.00107336 15.0932 0.00093425L4.88448 0ZM4.69021 1.50519C4.71157 1.47325 4.74047 1.44707 4.77436 1.42898C4.80825 1.41089 4.84607 1.40145 4.88448 1.40148H7.07006L5.28144 5.6956C5.24047 5.79385 5.20918 5.89586 5.18804 6.00019C4.53025 5.95107 3.87325 5.89189 3.21728 5.82267L1.90499 5.68533L4.69021 1.50519ZM1.84428 7.08774C3.52027 10.1636 5.73258 12.9148 8.37674 15.2116L5.45796 7.42503C4.66163 7.3703 3.86634 7.30115 3.07251 7.21761L1.84428 7.08774ZM6.98694 7.51192L9.98884 15.5228L12.9917 7.51192C10.9908 7.60291 8.98686 7.60291 6.986 7.51192H6.98694ZM14.5216 7.42503L11.6028 15.2116C14.247 12.9148 16.4593 10.1636 18.1353 7.08774L16.907 7.21761C16.1131 7.30076 15.3183 7.3699 14.5216 7.42503ZM18.0736 5.68533L16.7604 5.8236C16.1044 5.89282 15.4474 5.95201 14.7896 6.00113C14.7689 5.89651 14.7379 5.79418 14.6972 5.6956L12.9076 1.40148H15.0932C15.1316 1.40145 15.1694 1.41089 15.2033 1.42898C15.2372 1.44707 15.2661 1.47325 15.2875 1.50519L18.0736 5.68533ZM13.3447 6.09175C11.1097 6.20761 8.87083 6.20761 6.63482 6.09175L8.58783 1.40148H11.3899L13.3438 6.09175H13.3447Z" fill="#4C5CF4"/>
</svg>
