<svg width="44" height="52" viewBox="0 0 44 52" fill="none" xmlns="http://www.w3.org/2000/svg">
<path fill-rule="evenodd" clip-rule="evenodd" d="M31.7703 22.1918C31.7703 24.7312 30.7616 27.1665 28.966 28.9621C27.1704 30.7577 24.7351 31.7664 22.1957 31.7664C19.6564 31.7664 17.221 30.7577 15.4254 28.9621C13.6298 27.1665 12.6211 24.7312 12.6211 22.1918C12.6211 19.6525 13.6298 17.2171 15.4254 15.4215C17.221 13.6259 19.6564 12.6172 22.1957 12.6172C24.7351 12.6172 27.1704 13.6259 28.966 15.4215C30.7616 17.2171 31.7703 19.6525 31.7703 22.1918ZM26.983 22.1918C26.983 23.4615 26.4786 24.6792 25.5809 25.5769C24.6831 26.4747 23.4654 26.9791 22.1957 26.9791C20.926 26.9791 19.7084 26.4747 18.8106 25.5769C17.9128 24.6792 17.4084 23.4615 17.4084 22.1918C17.4084 20.9221 17.9128 19.7045 18.8106 18.8067C19.7084 17.9089 20.926 17.4045 22.1957 17.4045C23.4654 17.4045 24.6831 17.9089 25.5809 18.8067C26.4786 19.7045 26.983 20.9221 26.983 22.1918Z" fill="#4C5CF4"/>
<path fill-rule="evenodd" clip-rule="evenodd" d="M6.68788 37.145C3.60207 34.2069 1.4568 30.4198 0.523347 26.2625C-0.410106 22.1052 -0.0898129 17.7645 1.44372 13.7892C2.97726 9.81397 5.65516 6.38274 9.13879 3.92943C12.6224 1.47612 16.7553 0.110922 21.0148 0.00647584C25.2743 -0.09797 29.4692 1.06303 33.0688 3.34265C36.6685 5.62227 39.5114 8.91814 41.2379 12.8135C42.9644 16.7088 43.4971 21.0286 42.7685 25.2266C42.0399 29.4247 40.0829 33.3124 37.1447 36.3982L22.2897 52L6.68788 37.145ZM33.6787 33.0973L22.1246 45.2331L9.98873 33.679C7.58877 31.3938 5.92032 28.4483 5.19435 25.2149C4.46839 21.9816 4.71751 18.6055 5.91022 15.5137C7.10293 12.4219 9.18566 9.75324 11.895 7.84511C14.6044 5.93698 17.8188 4.8751 21.1317 4.79376C24.4445 4.71242 27.7071 5.61527 30.5069 7.38813C33.3067 9.161 35.5179 11.7243 36.8609 14.7538C38.2039 17.7833 38.6184 21.1431 38.052 24.4082C37.4855 27.6733 35.9637 30.6971 33.6787 33.0973Z" fill="#4C5CF4"/>
</svg>
