<svg width="44" height="44" viewBox="0 0 44 44" fill="none" xmlns="http://www.w3.org/2000/svg">
<circle opacity="0.5" cx="20" cy="19" r="11" fill="#F3F4F9"/>
<path d="M27.2815 18.9526C27.2815 19.4388 27.084 19.9051 26.7323 20.249C26.3807 20.5928 25.9038 20.7859 25.4065 20.7859H22.2815V23.8415C22.2815 24.3277 22.084 24.794 21.7324 25.1378C21.3807 25.4817 20.9038 25.6748 20.4065 25.6748C19.9092 25.6748 19.4323 25.4817 19.0807 25.1378C18.7291 24.794 18.5315 24.3277 18.5315 23.8415V20.7859H15.4065C14.9092 20.7859 14.4323 20.5928 14.0807 20.249C13.7291 19.9051 13.5315 19.4388 13.5315 18.9526C13.5315 18.4664 13.7291 18 14.0807 17.6562C14.4323 17.3124 14.9092 17.1193 15.4065 17.1193H18.5315V14.0637C18.5315 13.5775 18.7291 13.1112 19.0807 12.7673C19.4323 12.4235 19.9092 12.2304 20.4065 12.2304C20.9038 12.2304 21.3807 12.4235 21.7324 12.7673C22.084 13.1112 22.2815 13.5775 22.2815 14.0637V17.1193H25.4065C25.9038 17.1193 26.3807 17.3124 26.7323 17.6562C27.084 18 27.2815 18.4664 27.2815 18.9526ZM39.2331 37.3608C39.0589 37.5317 38.8519 37.6673 38.624 37.7598C38.3961 37.8524 38.1517 37.9 37.905 37.9C37.6582 37.9 37.4138 37.8524 37.1859 37.7598C36.958 37.6673 36.751 37.5317 36.5768 37.3608L29.1565 30.1054C26.2573 32.2808 22.6203 33.2964 18.9833 32.9463C15.3464 32.5961 11.9818 30.9064 9.57213 28.2199C7.16248 25.5333 5.88817 22.0512 6.00771 18.4797C6.12725 14.9083 7.63169 11.5151 10.2158 8.98836C12.8 6.46164 16.2703 4.99063 19.9229 4.87375C23.5755 4.75687 27.1368 6.00285 29.8844 8.35896C32.632 10.7151 34.3601 14.0049 34.7182 17.561C35.0763 21.1171 34.0376 24.6733 31.8128 27.5081L39.2409 34.7697C39.591 35.1144 39.7868 35.581 39.7853 36.0668C39.7839 36.5526 39.5853 37.018 39.2331 37.3608ZM20.4065 29.3415C22.508 29.3415 24.5622 28.7322 26.3095 27.5906C28.0567 26.4491 29.4186 24.8266 30.2227 22.9282C31.0269 21.0299 31.2373 18.9411 30.8274 16.9258C30.4174 14.9106 29.4055 13.0594 27.9195 11.6065C26.4336 10.1536 24.5404 9.16418 22.4794 8.76332C20.4183 8.36246 18.282 8.5682 16.3405 9.35451C14.399 10.1408 12.7396 11.4724 11.5722 13.1808C10.4047 14.8893 9.78152 16.8979 9.78152 18.9526C9.78483 21.7069 10.9053 24.3475 12.8972 26.2951C14.889 28.2427 17.5896 29.3382 20.4065 29.3415Z" fill="#3A319E"/>
</svg>
