<svg width="78" height="78" viewBox="0 0 78 78" fill="none" xmlns="http://www.w3.org/2000/svg">
<g clip-path="url(#clip0_335_140)">
<path d="M39 6.5C56.9497 6.5 71.5 21.0503 71.5 39C71.5 56.9497 56.9497 71.5 39 71.5C21.0503 71.5 6.5 56.9497 6.5 39C6.5 21.0503 21.0503 6.5 39 6.5ZM39 13C32.1044 13 25.4912 15.7393 20.6152 20.6152C15.7393 25.4912 13 32.1044 13 39C13 45.8956 15.7393 52.5088 20.6152 57.3848C25.4912 62.2607 32.1044 65 39 65C45.8956 65 52.5088 62.2607 57.3848 57.3848C62.2607 52.5088 65 45.8956 65 39C65 32.1044 62.2607 25.4912 57.3848 20.6152C52.5088 15.7393 45.8956 13 39 13ZM39 48.75C39.862 48.75 40.6886 49.0924 41.2981 49.7019C41.9076 50.3114 42.25 51.138 42.25 52C42.25 52.862 41.9076 53.6886 41.2981 54.2981C40.6886 54.9076 39.862 55.25 39 55.25C38.138 55.25 37.3114 54.9076 36.7019 54.2981C36.0924 53.6886 35.75 52.862 35.75 52C35.75 51.138 36.0924 50.3114 36.7019 49.7019C37.3114 49.0924 38.138 48.75 39 48.75ZM39 19.5C39.862 19.5 40.6886 19.8424 41.2981 20.4519C41.9076 21.0614 42.25 21.888 42.25 22.75V42.25C42.25 43.112 41.9076 43.9386 41.2981 44.5481C40.6886 45.1576 39.862 45.5 39 45.5C38.138 45.5 37.3114 45.1576 36.7019 44.5481C36.0924 43.9386 35.75 43.112 35.75 42.25V22.75C35.75 21.888 36.0924 21.0614 36.7019 20.4519C37.3114 19.8424 38.138 19.5 39 19.5Z" fill="white"/>
</g>
<defs>
<clipPath id="clip0_335_140">
<rect width="78" height="78" fill="white"/>
</clipPath>
</defs>
</svg>
