<svg width="16" height="20" viewBox="0 0 16 20" fill="none" xmlns="http://www.w3.org/2000/svg">
<path d="M7.93021 6.98129L6.27637 8.46514C6.49348 9.21397 6.79893 9.9343 7.18628 10.6109C7.58943 11.2829 8.07443 11.9022 8.63014 12.4548L10.7719 11.7948C11.9718 11.4249 13.2817 11.8048 14.0796 12.7547L15.2995 14.2066C15.7934 14.7894 16.041 15.5416 15.9899 16.3039C15.9387 17.0661 15.5928 17.7785 15.0255 18.2902C13.0357 20.106 9.97201 20.7199 7.67823 18.9181C5.66228 17.3308 3.95656 15.385 2.64672 13.1787C1.33401 10.9827 0.455504 8.5549 0.0589752 6.02738C-0.380982 3.18366 1.70082 0.907879 4.29656 0.131955C5.84441 -0.332 7.49625 0.463922 8.06419 1.94778L8.73413 3.69761C9.17408 4.84949 8.85812 6.14937 7.93021 6.98129Z" fill="white"/>
</svg>
